<?xml version="1.0" encoding="utf-8"?>
<!-- Generator: Adobe Illustrator 16.0.0, SVG Export Plug-In . SVG Version: 6.00 Build 0)  -->
<!DOCTYPE svg PUBLIC "-//W3C//DTD SVG 1.1//EN" "http://www.w3.org/Graphics/SVG/1.1/DTD/svg11.dtd">
<svg version="1.1" xmlns="http://www.w3.org/2000/svg" xmlns:xlink="http://www.w3.org/1999/xlink" x="0px" y="0px" width="730px"
	 height="320px" viewBox="0 0 730 320" enable-background="new 0 0 730 320" xml:space="preserve">
<g id="Layer_2">
	<polyline fill="none" stroke="#CCCCCC" points="42.5,22 42.5,288.5 713.5,288.5 	"/>
	<line fill="none" stroke="#CCCCCC" x1="43" y1="22" x2="36.5" y2="22"/>
	<line fill="none" stroke="#CCCCCC" x1="42.5" y1="51.333" x2="36.5" y2="51.333"/>
	<line fill="none" stroke="#CCCCCC" x1="42.5" y1="80.499" x2="36.5" y2="80.499"/>
	<line fill="none" stroke="#CCCCCC" x1="42.5" y1="109.832" x2="36.5" y2="109.832"/>
	<line fill="none" stroke="#CCCCCC" x1="42.5" y1="138.999" x2="36.5" y2="138.999"/>
	<line fill="none" stroke="#CCCCCC" x1="42.5" y1="167.999" x2="36.5" y2="167.999"/>
	<line fill="none" stroke="#CCCCCC" x1="42.5" y1="197.333" x2="36.5" y2="197.333"/>
	<line fill="none" stroke="#CCCCCC" x1="42.5" y1="226.166" x2="36.5" y2="226.166"/>
	<line fill="none" stroke="#CCCCCC" x1="42.5" y1="255.665" x2="36.5" y2="255.665"/>
	<line fill="none" stroke="#CCCCCC" x1="80" y1="294.5" x2="80" y2="288.5"/>
	<line fill="none" stroke="#CCCCCC" x1="300" y1="294.5" x2="300" y2="288.5"/>
	<line fill="none" stroke="#CCCCCC" x1="520" y1="294.5" x2="520" y2="288.5"/>
	<line fill="none" stroke="#CCCCCC" x1="42.5" y1="288.5" x2="36.5" y2="288.5"/>
	<text transform="matrix(1 0 0 1 21.6562 292.166)" fill="#999999" font-family="'Helvetica'" font-size="11">$0</text>
	<text transform="matrix(1 0 0 1 57 307.5)" fill="#999999" font-family="'Helvetica'" font-size="11">February</text>
	<text transform="matrix(1 0 0 1 285 307.5)" fill="#999999" font-family="'Helvetica'" font-size="11">March</text>
	<text transform="matrix(1 0 0 1 510 307.5)" fill="#999999" font-family="'Helvetica'" font-size="11">April</text>
	<text transform="matrix(1 0 0 1 15.2642 259.3145)" fill="#999999" font-family="'Helvetica'" font-size="11">$10</text>
	<text transform="matrix(1 0 0 1 15.2642 230.1299)" fill="#999999" font-family="'Helvetica'" font-size="11">$20</text>
	<text transform="matrix(1 0 0 1 15.2642 200.9443)" fill="#999999" font-family="'Helvetica'" font-size="11">$30</text>
	<text transform="matrix(1 0 0 1 15.2642 171.7598)" fill="#999999" font-family="'Helvetica'" font-size="11">$40</text>
	<text transform="matrix(1 0 0 1 15.2642 142.5742)" fill="#999999" font-family="'Helvetica'" font-size="11">$50</text>
	<text transform="matrix(1 0 0 1 15.2642 113.3896)" fill="#999999" font-family="'Helvetica'" font-size="11">$60</text>
	<text transform="matrix(1 0 0 1 15.2642 84.2046)" fill="#999999" font-family="'Helvetica'" font-size="11">$70</text>
	<text transform="matrix(1 0 0 1 15.2642 55.0195)" fill="#999999" font-family="'Helvetica'" font-size="11">$80</text>
	<text transform="matrix(1 0 0 1 15.2642 25.834)" fill="#999999" font-family="'Helvetica'" font-size="11">$90</text>
</g>
<g id="Layer_4">
	<line fill="none" stroke="#333333" x1="75" y1="180" x2="75" y2="240"/>
	<line fill="none" stroke="#333333" x1="150" y1="200" x2="150" y2="250"/>
	<line fill="none" stroke="#333333" x1="225" y1="160" x2="225" y2="230"/>
	<line fill="none" stroke="#333333" x1="300" y1="160" x2="300" y2="210"/>
	<line fill="none" stroke="#333333" x1="375" y1="130" x2="375" y2="220"/>
	<line fill="none" stroke="#333333" x1="450" y1="130" x2="450" y2="180"/>

</g>
<g id="Layer_1">
	<rect x="50" y="200" fill="#ED454A" width="50" height="30"/>
	<rect x="125" y="215" fill="#8CC63F" width="50" height="15"/>
	<rect x="200" y="190" fill="#8CC63F" width="50" height="25"/>
	<rect x="275" y="190" fill="#ED454A" width="50" height="15"/>
	<rect x="350" y="155" fill="#8CC63F" width="50" height="50"/>
	<rect x="425" y="135" fill="#8CC63F" width="50" height="20"/>
8CC63F
</g>
</svg>















